<svg id="Layer_1" data-name="Layer 1" xmlns="http://www.w3.org/2000/svg" viewBox="0 0 2477.51 662.23"><title>logo-final-nunito</title><path d="M467.34,456.42a2.44,2.44,0,0,1-.26.76,7,7,0,0,0-.59,1.28,39.32,39.32,0,0,1-14.63,21c-7.46,5.6-15.18,10.77-22.8,16.09-8.11,5.65-16.25,11.24-24.37,16.86l-24.37,16.86-24,16.61-24.55,17-24,16.61-24.55,17-23.83,16.48L234.64,630l-15.89,11q-12.27,8.51-24.55,17c-1.78,1.23-3.58,2.43-5.44,3.67a2,2,0,0,1-2.78-.47c-.35-.47-.7-.94-1-1.43-3.13-4.7-6.21-9.44-9.34-14.13q-8.52-12.79-17.08-25.56-5.31-8-10.65-15.91-8.61-12.87-17.21-25.73c-.81-1.21-1.64-2.41-2.53-3.71a2.72,2.72,0,0,1,.69-3.64h0q13-9,26-18l15.53-10.73q12.54-8.68,25.09-17.37l15.34-10.61L235.89,497q7.77-5.37,15.53-10.72l25.09-17.38L292,458.17l24.9-17.25c1.21-.83,2.5-1.52,3.63-2.46,5.59-4.68,9-10.66,8.7-18.52a23.68,23.68,0,0,0-4.4-13c-2.4-3.38-4.7-6.84-7-10.29-2.89-4.33-5.73-8.69-8.61-13q-8.88-13.35-17.79-26.69c-3.67-5.49-7.38-11-11-16.49-5.75-8.76-12.08-17-18.35-25.31q-3-4-6-8-7.59-10.26-15.16-20.51c-3.26-4.39-6.56-8.74-9.82-13.13-6.27-8.43-4.79-20.54,2-27.82a2.5,2.5,0,0,1,.39-.34q15.43-10.83,31-21.56c4-2.79,8.1-5.51,12.13-8.3q14.07-9.75,28.14-19.53.44-.3.9-.57a1.44,1.44,0,0,1,1.9.38h0q7,10.14,14.06,20.29,8.63,12.42,17.27,24.83l10.93,15.68L367,281.24q8.25,11.86,16.52,23.71l17,24.45q5.6,8,11.18,16.06,8.47,12.26,16.9,24.54c5.05,7.41,9.94,14.94,15,22.35,4.11,6.06,8.26,12.1,12.19,18.3,2.33,3.67,5.1,7,7.19,10.86,4.05,7.42,6.54,15.41,5.77,24.36a6.13,6.13,0,0,0,.09,1.35,2.48,2.48,0,0,1,0,.86Z" transform="translate(-5 0.19)" style="fill:#f1572a"/><path d="M295,.18a2.13,2.13,0,0,1,2.85.42c.15.19.3.38.43.58C303.49,9.05,308.68,17,313.9,24.83q8.81,13.24,17.65,26.47Q340.12,64.14,348.69,77q4.44,6.65,8.94,13.28c.17.24.34.48.52.71a2,2,0,0,1-.23,2.68A32.48,32.48,0,0,1,354.69,96c-3.47,2.49-7,4.85-10.51,7.32-7.53,5.34-15,10.73-22.58,16.08q-12.78,9.07-25.61,18.11l-25.06,17.69-25.25,17.83q-12.17,8.6-24.32,17.17L203.8,202.7q-12.42,8.79-24.87,17.56c-6.31,4.43-12.64,8.81-19,13.23a24.17,24.17,0,0,0-10.09,15.27,22.84,22.84,0,0,0,2.89,16.92c4.25,6.86,8.87,13.44,13.34,20.13q3.28,4.94,6.56,9.86c3.16,4.78,6.29,9.59,9.47,14.36,6.3,9.45,12.72,18.81,18.9,28.36,2.95,4.57,6,9,9.26,13.36,4.75,6.44,9.56,12.83,14.33,19.27,3.07,4.14,6.08,8.34,9.15,12.49,5.71,7.75,11.32,15.6,17.2,23.18,6.08,7.86,5.26,18.92.84,26.26a14.65,14.65,0,0,1-4,4.49c-10.47,7.41-20.91,14.87-31.37,22.29q-12.42,8.82-24.88,17.56l-17,12a1.52,1.52,0,0,1-2.11-.39h0q-7.57-11-15.12-22-8.83-12.78-17.69-25.53l-17-24.58-6-8.63c-6.58-9.5-14.54-21-17.68-25.54s-17.29-24.88-24.44-35.12L68,338.22c-3-4.38-6-8.79-9-13.21Q49,310.45,39.14,295.84q-3-4.51-6-9.08-7.82-11.82-15.61-23.66c-2.34-3.55-4.62-7.14-6.93-10.7a1.43,1.43,0,0,1-.15-.27c-3.6-7.56-5.81-15.52-5.34-24.31a47.79,47.79,0,0,1,4.9-19.4c3-6,6.84-11.35,12.09-15.16,8.4-6.12,16.89-12.1,25.34-18.12,2.92-2.08,5.86-4.14,8.79-6.21q10.65-7.56,21.28-15.13,13.37-9.48,26.74-18.92l16.08-11.37,26-18.37,25.06-17.69,25.44-18,24.88-17.56L246.89,34.1l24.88-17.57q8.42-6,16.83-11.9Q291.77,2.38,295,.18Z" transform="translate(-5 0.19)" style="fill:#06508b"/><path d="M677.11,448.32a348.2,348.2,0,0,1-70.52-7.48q-36.24-7.47-62.09-21.25-15.16-7.77-21.35-20.95a49.13,49.13,0,0,1-4.5-27.24,53.79,53.79,0,0,1,9.56-25.14,38.47,38.47,0,0,1,20.79-15q12.91-3.89,29.21,3.89a182.06,182.06,0,0,0,48.33,17.06,245.13,245.13,0,0,0,50.57,5.69q37.08,0,52-10.48t14.89-26q0-13.76-10.39-22.15T696.77,284.9l-65.74-15Q524.28,245.39,524.27,150.8q0-41.31,21.07-72.44t58.72-48.19q37.63-17.05,87.65-17.06A264.93,264.93,0,0,1,751,20q30.06,6.88,52,20.65,16.86,9.59,21.35,26a52,52,0,0,1-1.12,32,39.43,39.43,0,0,1-20,22.75q-14.32,7.17-36.24-2.4a161.16,161.16,0,0,0-37.09-11.67,208.36,208.36,0,0,0-39.33-3.89q-31.47,0-48.32,11.67t-16.86,30.23A26.69,26.69,0,0,0,635.53,167q10.11,8.4,36,14.37l65.18,15q108.44,24.55,108.44,116.13,0,41.31-20.79,71.84t-58.44,47.29Q728.23,448.32,677.11,448.32Z" transform="translate(-5 0.19)" style="fill:#f1572a"/><path d="M890.84,443.2q-10.3,0-16.37-6.7t-6.06-17.19q0-10.24,6.06-16.83t16.37-6.58q10.51,0,16.48,6.58t5.95,16.83q0,10.49-5.95,17.19T890.84,443.2Z" transform="translate(-5 0.19)" style="fill:#06518c"/><path d="M1149,448.32q-60.12,0-105.35-27.23t-70.52-76.33q-25.27-49.08-25.28-114.34,0-65.85,25-114.64t70.52-75.73Q1088.84,13.11,1149,13.11t105.36,26.94q45.21,26.94,70.51,75.73t25.29,114.64q0,65.25-25.29,114.34t-70.51,76.33Q1209.08,448.33,1149,448.32Zm0-92.19q43.83,0,68.83-33.22t25-92.49q0-59.26-24.73-92.19T1149,105.3q-44.39,0-69.11,32.93t-24.72,92.19q0,59.27,24.72,92.49T1149,356.13Z" transform="translate(-5 0.19)" style="fill:#f1572a"/><path d="M1406.52,443.2q-10.29,0-16.36-6.7t-6.07-17.19q0-10.24,6.07-16.83t16.36-6.58q10.53,0,16.48,6.58t6,16.83q0,10.49-6,17.19T1406.52,443.2Z" transform="translate(-5 0.19)" style="fill:#06518c"/><path d="M1525.86,441.74q-25.27,0-38.77-14.67t-13.48-41V74.77q0-26.94,13.48-41.3T1525.3,19.1q24.72,0,38.21,14.37T1577,74.77V350.15h137.1q21.35,0,32.87,12t11.51,33.52q0,22.16-11.51,34.13t-32.87,12Z" transform="translate(-5 0.19)" style="fill:#f1572a"/><path d="M1797.47,443.2q-10.29,0-16.36-6.7T1775,419.31q0-10.24,6.07-16.83t16.36-6.58q10.53,0,16.48,6.58t6,16.83q0,10.49-6,17.19T1797.47,443.2Z" transform="translate(-5 0.19)" style="fill:#06518c"/><path d="M1916.25,447.13q-24.74,0-38.21-14.37t-13.48-41.9V70.58q0-27.53,13.48-41.9t38.21-14.37q24.72,0,38.21,14.37t13.48,41.9V390.86q0,27.54-13.2,41.9T1916.25,447.13Z" transform="translate(-5 0.19)" style="fill:#f1572a"/><path d="M2035,443.2q-10.3,0-16.36-6.7t-6.07-17.19q0-10.24,6.07-16.83T2035,395.9q10.53,0,16.48,6.58t5.95,16.83q0,10.49-5.95,17.19T2035,443.2Z" transform="translate(-5 0.19)" style="fill:#06518c"/><path d="M2156.05,441.74q-53.94,0-53.94-56.87V76.57q0-56.86,53.94-56.87h110.13q102.83,0,159.58,55.07t56.75,155.65q0,100.58-56.75,156t-159.58,55.37Zm49.45-89.2h53.94q59,0,87.37-30.23t28.38-91.89q0-61.65-28.66-91.59t-87.09-29.94H2205.5Z" transform="translate(-5 0.19)" style="fill:#f1572a"/><path d="M587.4,653a128.1,128.1,0,0,1-26.18-2.81,85.12,85.12,0,0,1-23.05-8,16.85,16.85,0,0,1-7.92-7.88A18.57,18.57,0,0,1,528.58,624a20.26,20.26,0,0,1,3.54-9.46,14.3,14.3,0,0,1,7.72-5.63q4.8-1.46,10.85,1.46a66.55,66.55,0,0,0,17.93,6.42A89.87,89.87,0,0,0,587.4,619q13.76,0,19.29-3.94t5.53-9.8a10.25,10.25,0,0,0-3.86-8.33q-3.87-3.15-13.67-5.4l-24.4-5.63q-39.63-9.23-39.63-44.81,0-15.54,7.82-27.25a51.27,51.27,0,0,1,21.8-18.13q14-6.4,32.54-6.41a96.88,96.88,0,0,1,22,2.59,61.57,61.57,0,0,1,19.3,7.76,15.92,15.92,0,0,1,7.92,9.8,19.8,19.8,0,0,1-.42,12.05,14.73,14.73,0,0,1-7.4,8.55q-5.33,2.72-13.45-.9A59.22,59.22,0,0,0,607,524.73a76.63,76.63,0,0,0-14.6-1.46q-11.68,0-17.94,4.39T568.21,539a10.1,10.1,0,0,0,3.75,8.11q3.75,3.15,13.35,5.4l24.19,5.63q40.26,9.24,40.26,43.69,0,15.54-7.72,27t-21.69,17.79Q606.37,653,587.4,653Z" transform="translate(-5 0.19)" style="fill:#06518c"/><path d="M715.46,653q-17.12,0-29.83-7a48.91,48.91,0,0,1-19.81-20q-7.1-13.05-7.1-30.85,0-18,7.1-31a49.18,49.18,0,0,1,19.81-19.93q12.72-7,29.83-7t29.82,7A48.58,48.58,0,0,1,765,564.14q7,12.95,7,31,0,17.79-7,30.85a48.32,48.32,0,0,1-19.71,20Q732.56,653,715.46,653Zm0-29.5a16.9,16.9,0,0,0,13.76-6.75q5.43-6.75,5.43-21.62,0-15.08-5.43-21.73a17,17,0,0,0-13.76-6.64,17.22,17.22,0,0,0-14,6.64q-5.43,6.64-5.42,21.73,0,14.86,5.42,21.62A17.12,17.12,0,0,0,715.46,623.47Z" transform="translate(-5 0.19)" style="fill:#06518c"/><path d="M812.86,652.52q-9,0-13.76-5.18t-4.8-15.08v-63h-5.42q-14,0-14-14.87,0-14.62,14-14.63h5.42q1-22.74,12.51-34.23t33.58-14l6.05-.68q6.67-.9,10.64,1.69a13.11,13.11,0,0,1,5.42,6.87,17.54,17.54,0,0,1,.73,8.67,16.14,16.14,0,0,1-3.23,7.54,9.46,9.46,0,0,1-6.67,3.61l-2.92.22q-10.65.67-14.81,4.84t-4.18,12.05v3.38h11.89q14,0,14,14.63,0,14.86-14,14.87H831.42v63Q831.42,652.53,812.86,652.52Z" transform="translate(-5 0.19)" style="fill:#06518c"/><path d="M914,653q-23.37,0-34.62-11.71t-11.27-35.35v-36.7H861q-14,0-14-14.87,0-14.62,14-14.63h7.09v-14q0-9.91,4.8-15.09t13.77-5.18q18.56,0,18.56,20.27v14h17.1q14.19,0,14.19,14.63,0,14.86-14.19,14.87h-17.1v35.35q0,16.22,15.23,16.21a23.27,23.27,0,0,0,5.63-.67,20.75,20.75,0,0,1,5-.68,6.29,6.29,0,0,1,5.43,2.14q2.07,2.37,2.08,10.7a30.12,30.12,0,0,1-1.88,11.37,11.83,11.83,0,0,1-6.67,6.64,39.92,39.92,0,0,1-7.93,1.91A53.88,53.88,0,0,1,914,653Z" transform="translate(-5 0.19)" style="fill:#06518c"/><path d="M993.07,652.52q-14.61,0-20.65-15.31l-28.37-74.08q-4.17-10.36-.21-17.91t15.23-7.54q6.46,0,10.53,3.27t7.61,12.72l17.73,50.21,19-54.49q4.17-11.7,15-11.71,6,0,9.6,2.93a19.63,19.63,0,0,1,5.63,8.78L1063.36,605l18.35-52.69q2.93-8.33,7.51-11.49a17,17,0,0,1,9.8-3.15q10.63,0,13.77,7.77t-.84,17.9L1083.8,637q-6.06,15.54-20.44,15.54-14.82,0-20.65-15.54l-15-41-14.39,40.53Q1007.45,652.52,993.07,652.52Z" transform="translate(-5 0.19)" style="fill:#06518c"/><path d="M1160.55,653a44.63,44.63,0,0,1-21-4.73,35.67,35.67,0,0,1-14.18-12.94,34.86,34.86,0,0,1-5.11-18.81q0-11.93,5.84-19t18.77-10.14q12.93-3,34.41-3h7.93v-3.15q0-8.1-3.86-11.48t-13.24-3.38a57.55,57.55,0,0,0-11.37,1.24,77.6,77.6,0,0,0-13.87,4.39q-6.89,2.7-11.47-.23a13.42,13.42,0,0,1-6-8.44,16.94,16.94,0,0,1,1-11q2.39-5.51,9.28-8.21a100.31,100.31,0,0,1,18.46-5.3,92.06,92.06,0,0,1,15.53-1.46q25.67,0,38.07,11.93t12.41,37.61v45.49q0,20.26-17.1,20.26-16.28,0-17.31-18a26.43,26.43,0,0,1-10,13.51Q1170.77,653,1160.55,653Zm8.35-26.12a17.59,17.59,0,0,0,13-5.4q5.33-5.41,5.32-14.19v-4h-7.93q-12.3,0-18,2.81t-5.73,8.9a11.45,11.45,0,0,0,3.44,8.55Q1162.43,626.86,1168.9,626.85Z" transform="translate(-5 0.19)" style="fill:#06518c"/><path d="M1259.83,652.52q-19,0-19-20.26V557.72q0-20,18.15-20,8.55,0,13.24,5.18t4.7,14.86v.68a31.54,31.54,0,0,1,11.47-15.32,32.8,32.8,0,0,1,18.77-5.85q6-.22,9.07,3.27t3.23,12.94q0,8.12-3.12,12.84t-11.89,5.63l-4.8.45q-11.06,1.13-16.06,6.64t-5,16.33v36.93Q1278.6,652.53,1259.83,652.52Z" transform="translate(-5 0.19)" style="fill:#06518c"/><path d="M1382.89,653q-18.77,0-32.43-7.09a49.61,49.61,0,0,1-21-20.15q-7.3-13.07-7.3-30.85,0-16.89,7-30a51.66,51.66,0,0,1,19.19-20.38,53.1,53.1,0,0,1,27.85-7.32q15.43,0,26.8,7a45.8,45.8,0,0,1,17.52,19.93q6.15,12.95,6.15,30.29,0,8.77-9.59,8.78h-59.44q1.88,10.8,8.34,15.54t17.94,4.72a58.08,58.08,0,0,0,10.42-1.12,49.19,49.19,0,0,0,11.48-3.6c4.44-1.81,8.2-1.84,11.26-.12a12.87,12.87,0,0,1,6.15,7.88,17,17,0,0,1-.42,10.81,15,15,0,0,1-7.82,8.45,58.44,58.44,0,0,1-15.54,5.51A82.05,82.05,0,0,1,1382.89,653Zm-5-89.84a18.36,18.36,0,0,0-13.67,5.4q-5.31,5.4-6.77,15.76h38.79q-.63-10.57-5.32-15.87T1377.89,563.13Z" transform="translate(-5 0.19)" style="fill:#06518c"/><path d="M1553.3,653q-18.78,0-32.44-7.09a49.66,49.66,0,0,1-21-20.15q-7.31-13.07-7.3-30.85,0-16.89,7-30a51.59,51.59,0,0,1,19.19-20.38,53,53,0,0,1,27.84-7.32q15.44,0,26.8,7a45.8,45.8,0,0,1,17.52,19.93q6.15,12.95,6.16,30.29,0,8.77-9.6,8.78h-59.44q1.88,10.8,8.34,15.54t17.94,4.72a58.27,58.27,0,0,0,10.43-1.12,49.26,49.26,0,0,0,11.47-3.6c4.45-1.81,8.2-1.84,11.26-.12a12.92,12.92,0,0,1,6.16,7.88,17,17,0,0,1-.42,10.81,15,15,0,0,1-7.82,8.45,58.57,58.57,0,0,1-15.54,5.51A82.13,82.13,0,0,1,1553.3,653Zm-5-89.84a18.34,18.34,0,0,0-13.66,5.4q-5.33,5.4-6.78,15.76h38.79q-.62-10.57-5.31-15.87T1548.29,563.13Z" transform="translate(-5 0.19)" style="fill:#06518c"/><path d="M1650.7,653a40,40,0,0,1-23.26-7q-10.11-7-15.85-20t-5.73-30.85q0-18,5.73-31t15.85-19.93a40,40,0,0,1,23.26-7,37.73,37.73,0,0,1,18,4.39A32.61,32.61,0,0,1,1681.36,553V510q0-20.26,18.56-20.26,9,0,13.77,5.18t4.8,15.08V632.26q0,20.26-18.36,20.26-16.47,0-18.14-16.89a31,31,0,0,1-12.62,12.61A37.5,37.5,0,0,1,1650.7,653Zm11.89-29.5a16.9,16.9,0,0,0,13.76-6.75q5.43-6.75,5.43-21.62,0-15.08-5.43-21.73a17,17,0,0,0-13.76-6.64,17.22,17.22,0,0,0-14,6.64q-5.41,6.64-5.42,21.73,0,14.86,5.42,21.62A17.12,17.12,0,0,0,1662.59,623.47Z" transform="translate(-5 0.19)" style="fill:#06518c"/><path d="M1775.84,653q-20,0-29.51-11.82T1736.84,605V557.72q0-20,18.56-20,9,0,13.77,5.18t4.8,14.86v48.42q0,16.2,12.93,16.21a15.18,15.18,0,0,0,12.3-5.86q4.8-5.85,4.8-15.53V557.72q0-20,18.56-20,9,0,13.77,5.18t4.8,14.86v74.54q0,20.26-17.94,20.26-16.07,0-18.15-16.21Q1795,653,1775.84,653Z" transform="translate(-5 0.19)" style="fill:#06518c"/><path d="M1912.67,653q-17.33,0-30.14-7a48.75,48.75,0,0,1-19.92-20q-7.09-13.05-7.09-31.07t7.09-31a48.26,48.26,0,0,1,19.92-19.81q12.83-6.87,30.14-6.87a70.3,70.3,0,0,1,12.72,1.24,56,56,0,0,1,13.77,4.61,13.06,13.06,0,0,1,6.88,6.2,17,17,0,0,1,1.77,8.89,19.63,19.63,0,0,1-2.5,8.56,11.07,11.07,0,0,1-6,5.18q-3.85,1.35-8.66-1.13a31.39,31.39,0,0,0-14-3.38q-11.06,0-17.1,7.21t-6,20.27q0,13.29,6,20.6t17.1,7.32a31.39,31.39,0,0,0,6.88-.79,29.68,29.68,0,0,0,7.09-2.59q5-2.48,8.66-1a11.83,11.83,0,0,1,5.84,5.18,18.81,18.81,0,0,1,2.5,8.44,17,17,0,0,1-1.77,8.9,13,13,0,0,1-7.09,6.19,56.22,56.22,0,0,1-13.56,4.61A66.11,66.11,0,0,1,1912.67,653Z" transform="translate(-5 0.19)" style="fill:#06518c"/><path d="M1994.22,653a44.61,44.61,0,0,1-21-4.73,35.67,35.67,0,0,1-14.18-12.94,34.86,34.86,0,0,1-5.12-18.81q0-11.93,5.85-19t18.77-10.14q12.93-3,34.41-3h7.93v-3.15q0-8.1-3.86-11.48t-13.25-3.38a57.54,57.54,0,0,0-11.36,1.24,77.35,77.35,0,0,0-13.87,4.39q-6.88,2.7-11.47-.23a13.35,13.35,0,0,1-5.95-8.44,16.87,16.87,0,0,1,1-11q2.4-5.51,9.29-8.21a100.45,100.45,0,0,1,18.45-5.3,92.17,92.17,0,0,1,15.54-1.46q25.66,0,38.07,11.93T2056,586.77v45.49q0,20.26-17.1,20.26-16.27,0-17.32-18a26.41,26.41,0,0,1-10,13.51Q2004.44,653,1994.22,653Zm8.34-26.12a17.6,17.6,0,0,0,13-5.4q5.31-5.41,5.32-14.19v-4H2013q-12.3,0-18,2.81t-5.74,8.9a11.45,11.45,0,0,0,3.45,8.55Q1996.1,626.86,2002.56,626.85Z" transform="translate(-5 0.19)" style="fill:#06518c"/><path d="M2128.33,653q-23.35,0-34.62-11.71t-11.26-35.35v-36.7h-7.09q-14,0-14-14.87,0-14.62,14-14.63h7.09v-14q0-9.91,4.79-15.09t13.77-5.18q18.55,0,18.56,20.27v14h17.11q14.18,0,14.18,14.63,0,14.86-14.18,14.87h-17.11v35.35q0,16.22,15.23,16.21a23.27,23.27,0,0,0,5.63-.67,20.83,20.83,0,0,1,5-.68,6.27,6.27,0,0,1,5.42,2.14q2.08,2.37,2.09,10.7a30.32,30.32,0,0,1-1.88,11.37,11.85,11.85,0,0,1-6.68,6.64,40,40,0,0,1-7.92,1.91A54.11,54.11,0,0,1,2128.33,653Z" transform="translate(-5 0.19)" style="fill:#06518c"/><path d="M2182.77,521.69q-9.81,0-15.12-5t-5.32-14.41q0-9.24,5.32-14.19t15.12-4.95q20.66,0,20.65,19.14,0,9.45-5.32,14.41T2182.77,521.69Zm0,130.83q-9,0-13.66-5.63t-4.69-16.21V559.52q0-10.57,4.69-16.21t13.66-5.63q9,0,13.87,5.63t4.9,16.21v71.16q0,10.59-4.8,16.21T2182.77,652.52Z" transform="translate(-5 0.19)" style="fill:#06518c"/><path d="M2272.46,653q-17.11,0-29.83-7a49,49,0,0,1-19.82-20q-7.09-13.05-7.09-30.85,0-18,7.09-31a49.27,49.27,0,0,1,19.82-19.93q12.72-7,29.83-7t29.82,7A48.58,48.58,0,0,1,2322,564.14q7,12.95,7,31,0,17.79-7,30.85a48.32,48.32,0,0,1-19.71,20Q2289.56,653,2272.46,653Zm0-29.5a16.93,16.93,0,0,0,13.76-6.75q5.42-6.75,5.42-21.62,0-15.08-5.42-21.73a17,17,0,0,0-13.76-6.64,17.21,17.21,0,0,0-14,6.64q-5.43,6.64-5.42,21.73,0,14.86,5.42,21.62A17.11,17.11,0,0,0,2272.46,623.47Z" transform="translate(-5 0.19)" style="fill:#06518c"/><path d="M2361.93,652.52q-9,0-13.66-5.18t-4.69-15.08V557.72q0-20,18.14-20,16.49,0,17.94,17.34a35.66,35.66,0,0,1,13.87-13.17,40.31,40.31,0,0,1,19.29-4.62q18.36,0,27.22,11.71t8.87,36v47.29q0,9.9-4.8,15.08t-13.77,5.18q-9,0-13.76-5.18t-4.8-15.08V586.54q0-10.12-3.23-14.41t-9.49-4.27q-8.36,0-13.35,5.74t-5,15.42v43.24Q2380.7,652.53,2361.93,652.52Z" transform="translate(-5 0.19)" style="fill:#06518c"/><line x1="17.06" y1="193.91" x2="13.92" y2="196.55" style="fill:none"/></svg>